<svg width="274" height="230" viewBox="0 0 274 230" fill="none" xmlns="http://www.w3.org/2000/svg">
<g filter="url(#filter0_d_2820_146)">
<rect width="206.236" height="51.9782" rx="4.19179" transform="matrix(-1 0 0 1 239.805 16)" fill="white"/>
</g>
<path d="M64.3173 35.8109V47.4138H62.7915V38.7619L58.9351 47.4138H57.862L53.9888 38.7451V47.4138H52.4629V35.8109H54.1061L58.3985 45.4017L62.6909 35.8109H64.3173ZM75.2885 42.4674C75.2885 42.7581 75.2718 43.0655 75.2382 43.3896H67.8942C67.9501 44.2951 68.2575 45.0049 68.8164 45.5191C69.3865 46.0221 70.074 46.2736 70.8788 46.2736C71.5383 46.2736 72.086 46.1227 72.522 45.8209C72.9691 45.5079 73.2821 45.0943 73.4609 44.5801H75.1041C74.8582 45.4632 74.3663 46.1842 73.6286 46.7431C72.8908 47.2908 71.9742 47.5647 70.8788 47.5647C70.0069 47.5647 69.2244 47.369 68.5314 46.9778C67.8495 46.5866 67.313 46.0333 66.9217 45.3179C66.5305 44.5913 66.3349 43.7529 66.3349 42.8028C66.3349 41.8527 66.5249 41.0199 66.905 40.3045C67.285 39.5891 67.816 39.0414 68.4978 38.6613C69.1909 38.2701 69.9845 38.0745 70.8788 38.0745C71.7507 38.0745 72.522 38.2645 73.1926 38.6445C73.8633 39.0246 74.3775 39.55 74.7352 40.2207C75.1041 40.8802 75.2885 41.6291 75.2885 42.4674ZM73.7124 42.1489C73.7124 41.5676 73.5839 41.0702 73.3268 40.6566C73.0697 40.2318 72.7176 39.9133 72.2704 39.7009C71.8345 39.4773 71.3483 39.3655 70.8117 39.3655C70.0404 39.3655 69.3809 39.6114 68.8332 40.1033C68.2966 40.5951 67.9892 41.277 67.911 42.1489H73.7124ZM78.8284 35.0061V47.4138H77.3026V35.0061H78.8284ZM82.9547 39.9356C83.2676 39.3879 83.7259 38.9408 84.3296 38.5942C84.9332 38.2477 85.6206 38.0745 86.3919 38.0745C87.2191 38.0745 87.9624 38.2701 88.622 38.6613C89.2815 39.0525 89.8012 39.6059 90.1813 40.3213C90.5614 41.0255 90.7514 41.8471 90.7514 42.786C90.7514 43.7138 90.5614 44.541 90.1813 45.2676C89.8012 45.9941 89.2759 46.5586 88.6052 46.961C87.9457 47.3635 87.2079 47.5647 86.3919 47.5647C85.5983 47.5647 84.8996 47.3914 84.296 47.0449C83.7036 46.6984 83.2565 46.2568 82.9547 45.7203V47.4138H81.4288V35.0061H82.9547V39.9356ZM89.192 42.786C89.192 42.093 89.0523 41.4894 88.7729 40.9752C88.4934 40.461 88.1134 40.0697 87.6327 39.8015C87.1632 39.5332 86.6434 39.3991 86.0733 39.3991C85.5144 39.3991 84.9947 39.5388 84.514 39.8182C84.0445 40.0865 83.6645 40.4833 83.3738 41.0087C83.0944 41.5229 82.9547 42.1209 82.9547 42.8028C82.9547 43.4958 83.0944 44.105 83.3738 44.6304C83.6645 45.1446 84.0445 45.5414 84.514 45.8209C84.9947 46.0892 85.5144 46.2233 86.0733 46.2233C86.6434 46.2233 87.1632 46.0892 87.6327 45.8209C88.1134 45.5414 88.4934 45.1446 88.7729 44.6304C89.0523 44.105 89.192 43.4902 89.192 42.786ZM96.7671 47.5647C95.9064 47.5647 95.1239 47.369 94.4197 46.9778C93.7267 46.5866 93.1789 46.0333 92.7765 45.3179C92.3853 44.5913 92.1897 43.7529 92.1897 42.8028C92.1897 41.8638 92.3909 41.0367 92.7933 40.3213C93.2069 39.5947 93.7658 39.0414 94.47 38.6613C95.1742 38.2701 95.9623 38.0745 96.8342 38.0745C97.7061 38.0745 98.4941 38.2701 99.1984 38.6613C99.9026 39.0414 100.456 39.5891 100.858 40.3045C101.272 41.0199 101.479 41.8527 101.479 42.8028C101.479 43.7529 101.266 44.5913 100.842 45.3179C100.428 46.0333 99.8635 46.5866 99.1481 46.9778C98.4327 47.369 97.639 47.5647 96.7671 47.5647ZM96.7671 46.2233C97.3148 46.2233 97.829 46.0947 98.3097 45.8376C98.7904 45.5805 99.176 45.1949 99.4666 44.6807C99.7684 44.1665 99.9193 43.5405 99.9193 42.8028C99.9193 42.065 99.774 41.4391 99.4834 40.9249C99.1928 40.4107 98.8127 40.0306 98.3432 39.7847C97.8738 39.5276 97.3651 39.3991 96.8174 39.3991C96.2585 39.3991 95.7443 39.5276 95.2748 39.7847C94.8165 40.0306 94.4477 40.4107 94.1682 40.9249C93.8888 41.4391 93.749 42.065 93.749 42.8028C93.749 43.5517 93.8832 44.1833 94.1514 44.6975C94.4309 45.2117 94.7998 45.5973 95.2581 45.8544C95.7164 46.1003 96.2194 46.2233 96.7671 46.2233ZM111.634 38.2254V47.4138H110.108V46.0556C109.817 46.5251 109.409 46.894 108.884 47.1623C108.37 47.4193 107.8 47.5479 107.174 47.5479C106.458 47.5479 105.815 47.4026 105.245 47.1119C104.675 46.8101 104.223 46.363 103.887 45.7706C103.563 45.1781 103.401 44.4572 103.401 43.6076V38.2254H104.91V43.4064C104.91 44.3118 105.139 45.0105 105.598 45.5023C106.056 45.983 106.682 46.2233 107.475 46.2233C108.291 46.2233 108.934 45.9718 109.404 45.4688C109.873 44.9658 110.108 44.2336 110.108 43.2723V38.2254H111.634ZM115.736 39.7176C116.004 39.1923 116.384 38.7843 116.876 38.4936C117.379 38.203 117.988 38.0577 118.704 38.0577V39.6338H118.301C116.591 39.6338 115.736 40.5616 115.736 42.4171V47.4138H114.21V38.2254H115.736V39.7176ZM124.942 38.0577C126.059 38.0577 126.965 38.3986 127.658 39.0805C128.351 39.7512 128.698 40.7237 128.698 41.998V47.4138H127.188V42.2159C127.188 41.2993 126.959 40.6007 126.501 40.12C126.043 39.6282 125.417 39.3823 124.623 39.3823C123.818 39.3823 123.176 39.6338 122.695 40.1368C122.225 40.6398 121.991 41.372 121.991 42.3333V47.4138H120.465V38.2254H121.991V39.5332C122.292 39.0637 122.7 38.7004 123.215 38.4433C123.74 38.1862 124.316 38.0577 124.942 38.0577ZM139.574 42.4674C139.574 42.7581 139.557 43.0655 139.523 43.3896H132.179C132.235 44.2951 132.542 45.0049 133.101 45.5191C133.671 46.0221 134.359 46.2736 135.164 46.2736C135.823 46.2736 136.371 46.1227 136.807 45.8209C137.254 45.5079 137.567 45.0943 137.746 44.5801H139.389C139.143 45.4632 138.651 46.1842 137.914 46.7431C137.176 47.2908 136.259 47.5647 135.164 47.5647C134.292 47.5647 133.509 47.369 132.816 46.9778C132.134 46.5866 131.598 46.0333 131.207 45.3179C130.815 44.5913 130.62 43.7529 130.62 42.8028C130.62 41.8527 130.81 41.0199 131.19 40.3045C131.57 39.5891 132.101 39.0414 132.783 38.6613C133.476 38.2701 134.27 38.0745 135.164 38.0745C136.036 38.0745 136.807 38.2645 137.478 38.6445C138.148 39.0246 138.663 39.55 139.02 40.2207C139.389 40.8802 139.574 41.6291 139.574 42.4674ZM137.997 42.1489C137.997 41.5676 137.869 41.0702 137.612 40.6566C137.355 40.2318 137.003 39.9133 136.555 39.7009C136.119 39.4773 135.633 39.3655 135.097 39.3655C134.325 39.3655 133.666 39.6114 133.118 40.1033C132.582 40.5951 132.274 41.277 132.196 42.1489H137.997ZM143.164 45.3011L141.286 49.8115H140.263L141.487 45.3011H143.164ZM156.29 44.8148H151.192L150.254 47.4138H148.644L152.869 35.7941H154.63L158.838 47.4138H157.229L156.29 44.8148ZM155.854 43.5741L153.741 37.672L151.628 43.5741H155.854ZM168.829 38.2254V47.4138H167.303V46.0556C167.012 46.5251 166.604 46.894 166.079 47.1623C165.565 47.4193 164.995 47.5479 164.369 47.5479C163.653 47.5479 163.01 47.4026 162.44 47.1119C161.87 46.8101 161.418 46.363 161.082 45.7706C160.758 45.1781 160.596 44.4572 160.596 43.6076V38.2254H162.105V43.4064C162.105 44.3118 162.334 45.0105 162.792 45.5023C163.251 45.983 163.877 46.2233 164.67 46.2233C165.486 46.2233 166.129 45.9718 166.599 45.4688C167.068 44.9658 167.303 44.2336 167.303 43.2723V38.2254H168.829ZM174.658 47.5647C173.953 47.5647 173.322 47.4473 172.763 47.2126C172.204 46.9666 171.763 46.6313 171.438 46.2065C171.114 45.7706 170.935 45.2732 170.902 44.7142H172.478C172.523 45.1725 172.735 45.547 173.115 45.8376C173.506 46.1283 174.015 46.2736 174.641 46.2736C175.222 46.2736 175.681 46.145 176.016 45.8879C176.351 45.6309 176.519 45.3067 176.519 44.9155C176.519 44.513 176.34 44.2168 175.982 44.0268C175.625 43.8256 175.071 43.63 174.322 43.4399C173.641 43.2611 173.082 43.0822 172.646 42.9034C172.221 42.7134 171.852 42.4395 171.539 42.0818C171.237 41.7129 171.086 41.2323 171.086 40.6398C171.086 40.1703 171.226 39.74 171.505 39.3488C171.785 38.9575 172.182 38.6501 172.696 38.4266C173.21 38.1918 173.797 38.0745 174.457 38.0745C175.474 38.0745 176.295 38.3316 176.921 38.8457C177.547 39.3599 177.883 40.0642 177.927 40.9584H176.402C176.368 40.4777 176.172 40.0921 175.815 39.8015C175.468 39.5108 174.999 39.3655 174.406 39.3655C173.858 39.3655 173.423 39.4829 173.098 39.7176C172.774 39.9524 172.612 40.2598 172.612 40.6398C172.612 40.9416 172.707 41.1931 172.897 41.3944C173.098 41.5844 173.344 41.7409 173.635 41.8638C173.937 41.9756 174.35 42.1042 174.876 42.2495C175.535 42.4283 176.072 42.6072 176.485 42.786C176.899 42.9537 177.251 43.2108 177.542 43.5573C177.843 43.9038 178 44.3565 178.011 44.9155C178.011 45.4185 177.871 45.8712 177.592 46.2736C177.313 46.676 176.916 46.9946 176.402 47.2293C175.898 47.4529 175.317 47.5647 174.658 47.5647ZM182.026 39.4829V44.8987C182.026 45.3458 182.121 45.6644 182.311 45.8544C182.501 46.0333 182.831 46.1227 183.301 46.1227H184.424V47.4138H183.049C182.199 47.4138 181.562 47.2181 181.138 46.8269C180.713 46.4357 180.5 45.7929 180.5 44.8987V39.4829H179.31V38.2254H180.5V35.9115H182.026V38.2254H184.424V39.4829H182.026ZM187.798 39.7176C188.067 39.1923 188.447 38.7843 188.939 38.4936C189.442 38.203 190.051 38.0577 190.766 38.0577V39.6338H190.364C188.654 39.6338 187.798 40.5616 187.798 42.4171V47.4138H186.273V38.2254H187.798V39.7176ZM191.957 42.786C191.957 41.8471 192.148 41.0255 192.528 40.3213C192.908 39.6059 193.427 39.0525 194.087 38.6613C194.758 38.2701 195.501 38.0745 196.317 38.0745C197.122 38.0745 197.82 38.2477 198.413 38.5942C199.005 38.9408 199.447 39.3767 199.737 39.9021V38.2254H201.28V47.4138H199.737V45.7035C199.436 46.2401 198.983 46.6872 198.379 47.0449C197.787 47.3914 197.094 47.5647 196.3 47.5647C195.484 47.5647 194.746 47.3635 194.087 46.961C193.427 46.5586 192.908 45.9941 192.528 45.2676C192.148 44.541 191.957 43.7138 191.957 42.786ZM199.737 42.8028C199.737 42.1097 199.598 41.5061 199.318 40.9919C199.039 40.4777 198.659 40.0865 198.178 39.8182C197.709 39.5388 197.189 39.3991 196.619 39.3991C196.049 39.3991 195.529 39.5332 195.059 39.8015C194.59 40.0697 194.215 40.461 193.936 40.9752C193.657 41.4894 193.517 42.093 193.517 42.786C193.517 43.4902 193.657 44.105 193.936 44.6304C194.215 45.1446 194.59 45.5414 195.059 45.8209C195.529 46.0892 196.049 46.2233 196.619 46.2233C197.189 46.2233 197.709 46.0892 198.178 45.8209C198.659 45.5414 199.039 45.1446 199.318 44.6304C199.598 44.105 199.737 43.4958 199.737 42.8028ZM205.384 35.0061V47.4138H203.858V35.0061H205.384ZM208.773 36.7331C208.482 36.7331 208.236 36.6325 208.035 36.4313C207.834 36.2301 207.733 35.9842 207.733 35.6935C207.733 35.4029 207.834 35.157 208.035 34.9558C208.236 34.7546 208.482 34.654 208.773 34.654C209.052 34.654 209.287 34.7546 209.477 34.9558C209.678 35.157 209.779 35.4029 209.779 35.6935C209.779 35.9842 209.678 36.2301 209.477 36.4313C209.287 36.6325 209.052 36.7331 208.773 36.7331ZM209.511 38.2254V47.4138H207.985V38.2254H209.511ZM211.541 42.786C211.541 41.8471 211.731 41.0255 212.111 40.3213C212.491 39.6059 213.011 39.0525 213.67 38.6613C214.341 38.2701 215.084 38.0745 215.9 38.0745C216.705 38.0745 217.404 38.2477 217.996 38.5942C218.589 38.9408 219.03 39.3767 219.321 39.9021V38.2254H220.864V47.4138H219.321V45.7035C219.019 46.2401 218.566 46.6872 217.963 47.0449C217.37 47.3914 216.677 47.5647 215.884 47.5647C215.068 47.5647 214.33 47.3635 213.67 46.961C213.011 46.5586 212.491 45.9941 212.111 45.2676C211.731 44.541 211.541 43.7138 211.541 42.786ZM219.321 42.8028C219.321 42.1097 219.181 41.5061 218.902 40.9919C218.622 40.4777 218.242 40.0865 217.762 39.8182C217.292 39.5388 216.772 39.3991 216.202 39.3991C215.632 39.3991 215.112 39.5332 214.643 39.8015C214.173 40.0697 213.799 40.461 213.52 40.9752C213.24 41.4894 213.1 42.093 213.1 42.786C213.1 43.4902 213.24 44.105 213.52 44.6304C213.799 45.1446 214.173 45.5414 214.643 45.8209C215.112 46.0892 215.632 46.2233 216.202 46.2233C216.772 46.2233 217.292 46.0892 217.762 45.8209C218.242 45.5414 218.622 45.1446 218.902 44.6304C219.181 44.105 219.321 43.4958 219.321 42.8028Z" fill="#0C0C0C"/>
<g filter="url(#filter1_d_2820_146)">
<path d="M137.523 83.0686L128.301 68.8165H146.745L137.523 83.0686Z" fill="white"/>
</g>
<g filter="url(#filter2_d_2820_146)">
<path fill-rule="evenodd" clip-rule="evenodd" d="M165.827 106.577C177.52 118.019 174.68 134.515 165.827 148.179L147.554 176.393C147.235 176.885 146.794 177.291 146.272 177.572C145.75 177.853 145.164 178 144.568 178C143.973 178 143.387 177.853 142.865 177.572C142.343 177.291 141.902 176.885 141.583 176.393L123.31 148.182C114.456 134.515 111.617 118.019 123.31 106.58C128.959 101.085 136.602 98 144.568 98C152.535 98 160.177 101.085 165.827 106.58V106.577ZM144.568 113.694C142.284 113.694 140.051 114.357 138.152 115.599C136.252 116.84 134.772 118.605 133.898 120.67C133.024 122.735 132.795 125.008 133.241 127.2C133.686 129.392 134.786 131.405 136.402 132.986C138.017 134.566 140.075 135.643 142.315 136.079C144.556 136.515 146.878 136.291 148.988 135.436C151.099 134.58 152.902 133.132 154.172 131.273C155.441 129.415 156.118 127.23 156.118 124.995C156.118 121.998 154.901 119.123 152.735 117.004C150.569 114.885 147.632 113.694 144.568 113.694Z" fill="#7EDAA3"/>
</g>
<defs>
<filter id="filter0_d_2820_146" x="0.0340652" y="0.909567" width="273.305" height="119.047" filterUnits="userSpaceOnUse" color-interpolation-filters="sRGB">
<feFlood flood-opacity="0" result="BackgroundImageFix"/>
<feColorMatrix in="SourceAlpha" type="matrix" values="0 0 0 0 0 0 0 0 0 0 0 0 0 0 0 0 0 0 127 0" result="hardAlpha"/>
<feOffset dy="18.4439"/>
<feGaussianBlur stdDeviation="16.7671"/>
<feComposite in2="hardAlpha" operator="out"/>
<feColorMatrix type="matrix" values="0 0 0 0 0 0 0 0 0 0 0 0 0 0 0 0 0 0 0.11 0"/>
<feBlend mode="normal" in2="BackgroundImageFix" result="effect1_dropShadow_2820_146"/>
<feBlend mode="normal" in="SourceGraphic" in2="effect1_dropShadow_2820_146" result="shape"/>
</filter>
<filter id="filter1_d_2820_146" x="94.7665" y="53.7261" width="85.5119" height="81.3207" filterUnits="userSpaceOnUse" color-interpolation-filters="sRGB">
<feFlood flood-opacity="0" result="BackgroundImageFix"/>
<feColorMatrix in="SourceAlpha" type="matrix" values="0 0 0 0 0 0 0 0 0 0 0 0 0 0 0 0 0 0 127 0" result="hardAlpha"/>
<feOffset dy="18.4439"/>
<feGaussianBlur stdDeviation="16.7671"/>
<feComposite in2="hardAlpha" operator="out"/>
<feColorMatrix type="matrix" values="0 0 0 0 0 0 0 0 0 0 0 0 0 0 0 0 0 0 0.25 0"/>
<feBlend mode="normal" in2="BackgroundImageFix" result="effect1_dropShadow_2820_146"/>
<feBlend mode="normal" in="SourceGraphic" in2="effect1_dropShadow_2820_146" result="shape"/>
</filter>
<filter id="filter2_d_2820_146" x="82.0384" y="82.91" width="125.06" height="147.06" filterUnits="userSpaceOnUse" color-interpolation-filters="sRGB">
<feFlood flood-opacity="0" result="BackgroundImageFix"/>
<feColorMatrix in="SourceAlpha" type="matrix" values="0 0 0 0 0 0 0 0 0 0 0 0 0 0 0 0 0 0 127 0" result="hardAlpha"/>
<feOffset dy="18.44"/>
<feGaussianBlur stdDeviation="16.765"/>
<feComposite in2="hardAlpha" operator="out"/>
<feColorMatrix type="matrix" values="0 0 0 0 0 0 0 0 0 0 0 0 0 0 0 0 0 0 0.25 0"/>
<feBlend mode="normal" in2="BackgroundImageFix" result="effect1_dropShadow_2820_146"/>
<feBlend mode="normal" in="SourceGraphic" in2="effect1_dropShadow_2820_146" result="shape"/>
</filter>
</defs>
</svg>
