<svg width="21" height="21" viewBox="0 0 21 21" fill="none" xmlns="http://www.w3.org/2000/svg">
<path d="M10.3582 0.678711C4.85884 0.678711 0.359375 5.16881 0.359375 10.699C0.359375 15.6991 4.01894 19.8492 8.79837 20.5992V13.599H6.25867V10.699H8.79837V8.48889C8.79837 5.97883 10.2882 4.5988 12.5779 4.5988C13.6678 4.5988 14.8077 4.7888 14.8077 4.7888V7.25886H13.5478C12.3079 7.25886 11.918 8.02888 11.918 8.81891V10.699H14.6977L14.2477 13.599H11.918V20.5992C14.2741 20.227 16.4197 19.0246 17.9672 17.2091C19.5147 15.3937 20.3624 13.0846 20.357 10.699C20.357 5.16881 15.8575 0.678711 10.3582 0.678711Z" fill="black"/>
</svg>
