<svg width="24" height="24" viewBox="0 0 24 24" fill="none" xmlns="http://www.w3.org/2000/svg">
<path d="M4.94233 18.982C4.99058 18.7109 5.18355 18.5301 5.47302 18.4398L7.59575 17.8072C5.13531 16.3161 3.88096 14.1021 3.73623 11.1652C3.78448 10.7133 3.88096 10.1259 3.97745 9.53854C4.02569 9.22226 4.31516 9.17707 4.55638 9.35781C4.70111 9.49336 4.84584 9.62891 5.03882 9.71928C5.23179 9.85483 5.42477 9.76446 5.47302 9.58373C5.52126 9.49336 5.52126 9.40299 5.52126 9.35781C5.85897 7.86674 6.19668 6.42086 6.53438 4.92979C6.63087 4.47795 6.72736 4.02612 6.82385 3.57428C6.87209 3.30317 6.72736 3.21281 6.4379 3.30318C6.19668 3.34836 5.95546 3.43873 5.71424 3.52909C3.92921 4.0713 2.14418 4.61351 0.359149 5.15571C-0.0268028 5.29126 -0.0750463 5.472 0.262662 5.7431C0.455638 5.92384 0.648614 6.05939 0.84159 6.24012C1.1793 6.51123 1.1793 6.55641 0.986322 6.91788C0.0214418 9.08671 -0.268022 11.3007 0.262662 13.6051C1.22754 17.6265 3.78448 20.3375 7.78873 21.8285L5.2318 19.6597C4.94233 19.5242 4.84584 19.2531 4.94233 18.982Z" fill="#3B5CDF"/>
<path d="M23.8076 9.49353L23.084 12.6112C23.0357 12.8823 22.8428 13.0631 22.5533 13.1534C22.4568 13.1534 22.4086 13.1986 22.3121 13.1986C22.1191 13.1986 21.9261 13.1534 21.7814 13.0179L20.1893 11.572C20.1893 11.9335 20.1411 12.2497 20.0928 12.6112C19.5622 15.2319 18.0184 17.1296 15.4132 18.3044C15.0755 18.4399 14.7378 18.5755 14.4001 18.6658C14.0623 18.7562 13.8694 18.6207 13.9176 18.2592C13.9176 18.1236 13.9659 17.9881 14.0141 17.8525C14.1106 17.4911 13.9659 17.3555 13.5799 17.4911C11.5537 18.1236 9.57565 18.711 7.5494 19.3436C7.21169 19.434 7.16345 19.6599 7.40467 19.8858C8.99672 21.1961 10.5405 22.5517 12.1326 23.862C12.422 24.0879 12.615 24.0427 12.7115 23.6813C12.7598 23.4102 12.8562 23.0939 12.9045 22.8228C12.9527 22.642 13.0492 22.5517 13.2422 22.5065C13.6764 22.4613 14.1106 22.4161 14.593 22.2806C20.2858 21.0606 24.0006 16.3615 24.0006 11.3009C23.9524 10.7587 23.9041 10.2165 23.8559 9.67426C23.8559 9.62908 23.8559 9.53871 23.8076 9.49353Z" fill="#3B5CDF"/>
<path d="M8.36695 1.72188C8.55993 1.90262 8.65642 2.17372 8.60817 2.39964L8.12573 4.43291C9.28359 3.89071 10.5379 3.57442 11.8888 3.52924C12.5159 3.6196 13.1914 3.66479 13.8185 3.80034C15.2176 4.11663 16.4719 4.7492 17.4851 5.65288C17.7745 5.8788 17.7263 6.10471 17.3403 6.24027C17.1956 6.28545 17.0509 6.33063 16.9061 6.37582C16.5684 6.46619 16.5202 6.6921 16.8097 6.87284C18.4017 8.22835 19.9938 9.53869 21.5858 10.8942C21.8753 11.1201 22.0683 11.0298 22.1165 10.7135C22.4542 9.2224 22.7919 7.77652 23.1296 6.28545C23.2261 5.83361 23.3226 5.38177 23.4191 4.88475C23.5156 4.52328 23.3226 4.38773 22.9849 4.4781C22.7437 4.56846 22.5025 4.61365 22.2612 4.70402C21.827 4.83957 21.7788 4.83957 21.4893 4.4781C18.5947 1.04412 14.7834 -0.401758 10.152 0.0952646C8.12573 0.321184 6.29246 1.08931 4.65216 2.26409C4.50743 2.35446 4.41094 2.44482 4.31445 2.53519L7.64329 1.49596C7.88451 1.49596 8.17398 1.58633 8.36695 1.72188Z" fill="#3B5CDF"/>
</svg>
