<svg width="32" height="32" viewBox="0 0 32 32" fill="none" xmlns="http://www.w3.org/2000/svg">
<g filter="url(#filter0_d_2842_2483)">
<path d="M28.0001 4.01965H24.584V23.9983H28.0001V4.01965Z" fill="#F9D759"/>
<path d="M22.0216 8.58679H18.6055V23.9984H22.0216V8.58679Z" fill="#F9D759"/>
<path d="M16.0466 13.559H12.6309V23.9983H16.0466V13.559Z" fill="#F9D759"/>
<path d="M10.072 18.329H6.65625V24H10.072V18.329Z" fill="#F9D759"/>
<path d="M21.491 2.1714C21.5259 2.36722 21.4016 2.5556 21.2126 2.59214C21.0235 2.62868 20.8417 2.49955 20.8064 2.30372L20.6403 1.39626C17.0482 7.66795 10.9365 11.5365 4.46662 13.9939C4.03545 14.1571 3.79675 13.4785 4.22689 13.3156C10.5406 10.9178 16.5341 7.15249 20.042 1.02909L19.1595 1.35901C18.979 1.42571 18.779 1.32815 18.7149 1.14119C18.6506 0.953884 18.7447 0.747417 18.9252 0.680724L20.6694 0.0283317L20.7413 0.00598221C20.9304 -0.0298479 21.1122 0.0989276 21.1475 0.294397L21.491 2.1714Z" fill="#F9D759"/>
</g>
<defs>
<filter id="filter0_d_2842_2483" x="0" y="0" width="32" height="32" filterUnits="userSpaceOnUse" color-interpolation-filters="sRGB">
<feFlood flood-opacity="0" result="BackgroundImageFix"/>
<feColorMatrix in="SourceAlpha" type="matrix" values="0 0 0 0 0 0 0 0 0 0 0 0 0 0 0 0 0 0 127 0" result="hardAlpha"/>
<feOffset dy="4"/>
<feGaussianBlur stdDeviation="2"/>
<feComposite in2="hardAlpha" operator="out"/>
<feColorMatrix type="matrix" values="0 0 0 0 0.963333 0 0 0 0 0.899703 0 0 0 0 0.663897 0 0 0 1 0"/>
<feBlend mode="normal" in2="BackgroundImageFix" result="effect1_dropShadow_2842_2483"/>
<feBlend mode="normal" in="SourceGraphic" in2="effect1_dropShadow_2842_2483" result="shape"/>
</filter>
</defs>
</svg>
