<svg width="21" height="21" viewBox="0 0 21 21" fill="none" xmlns="http://www.w3.org/2000/svg">
<path d="M14.7684 0.63623H6.38938C2.74982 0.63623 0.580078 2.80628 0.580078 6.44636V14.8166C0.580078 18.4666 2.74982 20.6367 6.38938 20.6367H14.7584C18.3979 20.6367 20.5677 18.4666 20.5677 14.8266V6.44636C20.5777 2.80628 18.4079 0.63623 14.7684 0.63623ZM10.5789 14.5165C8.43914 14.5165 6.69935 12.7765 6.69935 10.6365C6.69935 8.49641 8.43914 6.75637 10.5789 6.75637C12.7186 6.75637 14.4584 8.49641 14.4584 10.6365C14.4584 12.7765 12.7186 14.5165 10.5789 14.5165ZM16.4982 5.51634C16.4482 5.63634 16.3782 5.74635 16.2882 5.84635C16.1882 5.93635 16.0782 6.00635 15.9582 6.05635C15.8383 6.10635 15.7083 6.13635 15.5783 6.13635C15.3083 6.13635 15.0583 6.03635 14.8684 5.84635C14.7784 5.74635 14.7084 5.63634 14.6584 5.51634C14.6084 5.39634 14.5784 5.26634 14.5784 5.13633C14.5784 5.00633 14.6084 4.87633 14.6584 4.75632C14.7084 4.62632 14.7784 4.52632 14.8684 4.42632C15.0983 4.19631 15.4483 4.08631 15.7683 4.15631C15.8383 4.16631 15.8982 4.18631 15.9582 4.21631C16.0182 4.23631 16.0782 4.26631 16.1382 4.30631C16.1882 4.33631 16.2382 4.38631 16.2882 4.42632C16.3782 4.52632 16.4482 4.62632 16.4982 4.75632C16.5482 4.87633 16.5782 5.00633 16.5782 5.13633C16.5782 5.26634 16.5482 5.39634 16.4982 5.51634Z" fill="black"/>
</svg>
