<svg width="237" height="227" viewBox="0 0 237 227" fill="none" xmlns="http://www.w3.org/2000/svg">
<g filter="url(#filter0_d_2820_139)">
<rect width="169.348" height="52.8165" rx="4.19179" transform="matrix(-1 0 0 1 202.916 16)" fill="white"/>
</g>
<g filter="url(#filter1_d_2820_139)">
<path d="M118.658 83.9068L109.855 68.8164H127.461L118.658 83.9068Z" fill="white"/>
</g>
<path d="M50.6411 45.3344H54.7323V46.5751H49.1153V34.8884H50.6411V45.3344ZM55.7826 41.9474C55.7826 41.0084 55.9726 40.1869 56.3527 39.4826C56.7327 38.7672 57.2525 38.2139 57.912 37.8227C58.5827 37.4314 59.326 37.2358 60.142 37.2358C60.9469 37.2358 61.6455 37.4091 62.2379 37.7556C62.8304 38.1021 63.2719 38.5381 63.5625 39.0635V37.3867H65.1051V46.5751H63.5625V44.8649C63.2607 45.4014 62.808 45.8486 62.2044 46.2063C61.612 46.5528 60.9189 46.726 60.1253 46.726C59.3093 46.726 58.5715 46.5248 57.912 46.1224C57.2525 45.72 56.7327 45.1555 56.3527 44.4289C55.9726 43.7024 55.7826 42.8752 55.7826 41.9474ZM63.5625 41.9642C63.5625 41.2711 63.4228 40.6675 63.1434 40.1533C62.8639 39.6391 62.4839 39.2479 62.0032 38.9796C61.5337 38.7002 61.0139 38.5604 60.4439 38.5604C59.8738 38.5604 59.354 38.6946 58.8845 38.9628C58.415 39.2311 58.0406 39.6224 57.7611 40.1365C57.4817 40.6507 57.3419 41.2544 57.3419 41.9474C57.3419 42.6516 57.4817 43.2664 57.7611 43.7918C58.0406 44.306 58.415 44.7028 58.8845 44.9823C59.354 45.2505 59.8738 45.3847 60.4439 45.3847C61.0139 45.3847 61.5337 45.2505 62.0032 44.9823C62.4839 44.7028 62.8639 44.306 63.1434 43.7918C63.4228 43.2664 63.5625 42.6572 63.5625 41.9642ZM72.2443 37.2191C72.9373 37.2191 73.5633 37.37 74.1222 37.6718C74.6811 37.9624 75.117 38.4039 75.43 38.9964C75.7542 39.5888 75.9163 40.3098 75.9163 41.1593V46.5751H74.4072V41.3773C74.4072 40.4607 74.1781 39.7621 73.7198 39.2814C73.2615 38.7896 72.6355 38.5437 71.8418 38.5437C71.037 38.5437 70.3943 38.7952 69.9136 39.2982C69.4441 39.8012 69.2094 40.5334 69.2094 41.4947V46.5751H67.6836V34.1674H69.2094V38.6946C69.5112 38.2251 69.9248 37.8618 70.4502 37.6047C70.9867 37.3476 71.5848 37.2191 72.2443 37.2191ZM82.416 46.726C81.5553 46.726 80.7728 46.5304 80.0686 46.1392C79.3756 45.748 78.8279 45.1946 78.4254 44.4792C78.0342 43.7527 77.8386 42.9143 77.8386 41.9642C77.8386 41.0252 78.0398 40.198 78.4422 39.4826C78.8558 38.7561 79.4147 38.2027 80.1189 37.8227C80.8231 37.4314 81.6112 37.2358 82.4831 37.2358C83.355 37.2358 84.143 37.4314 84.8473 37.8227C85.5515 38.2027 86.1048 38.7505 86.5072 39.4659C86.9208 40.1813 87.1276 41.014 87.1276 41.9642C87.1276 42.9143 86.9152 43.7527 86.4904 44.4792C86.0768 45.1946 85.5124 45.748 84.797 46.1392C84.0816 46.5304 83.2879 46.726 82.416 46.726ZM82.416 45.3847C82.9637 45.3847 83.4779 45.2561 83.9586 44.999C84.4393 44.7419 84.8249 44.3563 85.1155 43.8421C85.4173 43.3279 85.5682 42.7019 85.5682 41.9642C85.5682 41.2264 85.4229 40.6004 85.1323 40.0862C84.8417 39.5721 84.4616 39.192 83.9921 38.9461C83.5227 38.689 83.0141 38.5604 82.4663 38.5604C81.9074 38.5604 81.3932 38.689 80.9237 38.9461C80.4654 39.192 80.0966 39.5721 79.8171 40.0862C79.5377 40.6004 79.3979 41.2264 79.3979 41.9642C79.3979 42.7131 79.5321 43.3447 79.8003 43.8589C80.0798 44.373 80.4487 44.7587 80.907 45.0158C81.3653 45.2617 81.8683 45.3847 82.416 45.3847ZM90.6596 38.879C90.9278 38.3536 91.3079 37.9456 91.7997 37.655C92.3027 37.3644 92.9119 37.2191 93.6273 37.2191V38.7952H93.2249C91.5147 38.7952 90.6596 39.723 90.6596 41.5785V46.5751H89.1338V37.3867H90.6596V38.879ZM103.772 41.6288C103.772 41.9195 103.755 42.2269 103.722 42.551H96.3779C96.4338 43.4564 96.7412 44.1663 97.3001 44.6804C97.8702 45.1835 98.5577 45.435 99.3625 45.435C100.022 45.435 100.57 45.2841 101.006 44.9823C101.453 44.6693 101.766 44.2557 101.945 43.7415H103.588C103.342 44.6246 102.85 45.3455 102.112 45.9044C101.375 46.4522 100.458 46.726 99.3625 46.726C98.4906 46.726 97.7081 46.5304 97.0151 46.1392C96.3332 45.748 95.7967 45.1946 95.4055 44.4792C95.0142 43.7527 94.8186 42.9143 94.8186 41.9642C94.8186 41.014 95.0086 40.1813 95.3887 39.4659C95.7687 38.7505 96.2997 38.2027 96.9816 37.8227C97.6746 37.4314 98.4683 37.2358 99.3625 37.2358C100.234 37.2358 101.006 37.4259 101.676 37.8059C102.347 38.186 102.861 38.7113 103.219 39.382C103.588 40.0415 103.772 40.7905 103.772 41.6288ZM102.196 41.3102C102.196 40.729 102.068 40.2316 101.811 39.818C101.553 39.3932 101.201 39.0746 100.754 38.8622C100.318 38.6387 99.832 38.5269 99.2954 38.5269C98.5241 38.5269 97.8646 38.7728 97.3169 39.2647C96.7804 39.7565 96.473 40.4384 96.3947 41.3102H102.196ZM111.833 44.4625L109.955 48.9728H108.932L110.156 44.4625H111.833ZM125.864 38.3089C125.864 39.2814 125.529 40.0918 124.858 40.7402C124.198 41.3773 123.187 41.6959 121.823 41.6959H119.576V46.5751H118.051V34.8884H121.823C123.142 34.8884 124.143 35.207 124.824 35.8442C125.518 36.4813 125.864 37.3029 125.864 38.3089ZM121.823 40.4384C122.673 40.4384 123.299 40.2539 123.701 39.885C124.103 39.5162 124.305 38.9908 124.305 38.3089C124.305 36.867 123.477 36.146 121.823 36.146H119.576V40.4384H121.823ZM127.19 41.9474C127.19 41.0084 127.38 40.1869 127.76 39.4826C128.14 38.7672 128.66 38.2139 129.32 37.8227C129.99 37.4314 130.734 37.2358 131.55 37.2358C132.355 37.2358 133.053 37.4091 133.646 37.7556C134.238 38.1021 134.68 38.5381 134.97 39.0635V37.3867H136.513V46.5751H134.97V44.8649C134.668 45.4014 134.216 45.8486 133.612 46.2063C133.02 46.5528 132.327 46.726 131.533 46.726C130.717 46.726 129.979 46.5248 129.32 46.1224C128.66 45.72 128.14 45.1555 127.76 44.4289C127.38 43.7024 127.19 42.8752 127.19 41.9474ZM134.97 41.9642C134.97 41.2711 134.831 40.6675 134.551 40.1533C134.272 39.6391 133.892 39.2479 133.411 38.9796C132.941 38.7002 132.422 38.5604 131.852 38.5604C131.282 38.5604 130.762 38.6946 130.292 38.9628C129.823 39.2311 129.448 39.6224 129.169 40.1365C128.889 40.6507 128.75 41.2544 128.75 41.9474C128.75 42.6516 128.889 43.2664 129.169 43.7918C129.448 44.306 129.823 44.7028 130.292 44.9823C130.762 45.2505 131.282 45.3847 131.852 45.3847C132.422 45.3847 132.941 45.2505 133.411 44.9823C133.892 44.7028 134.272 44.306 134.551 43.7918C134.831 43.2664 134.97 42.6572 134.97 41.9642ZM144.222 46.5751L140.617 42.5175V46.5751H139.091V34.1674H140.617V41.4612L144.155 37.3867H146.284L141.959 41.9642L146.301 46.5751H144.222ZM148.509 35.8945C148.218 35.8945 147.972 35.7939 147.771 35.5927C147.57 35.3914 147.469 35.1455 147.469 34.8549C147.469 34.5643 147.57 34.3183 147.771 34.1171C147.972 33.9159 148.218 33.8153 148.509 33.8153C148.788 33.8153 149.023 33.9159 149.213 34.1171C149.414 34.3183 149.515 34.5643 149.515 34.8549C149.515 35.1455 149.414 35.3914 149.213 35.5927C149.023 35.7939 148.788 35.8945 148.509 35.8945ZM149.246 37.3867V46.5751H147.721V37.3867H149.246ZM155.1 46.726C154.395 46.726 153.764 46.6087 153.205 46.3739C152.646 46.128 152.205 45.7927 151.88 45.3679C151.556 44.932 151.377 44.4345 151.344 43.8756H152.92C152.965 44.3339 153.177 44.7084 153.557 44.999C153.948 45.2897 154.457 45.435 155.083 45.435C155.664 45.435 156.122 45.3064 156.458 45.0493C156.793 44.7922 156.961 44.4681 156.961 44.0768C156.961 43.6744 156.782 43.3782 156.424 43.1882C156.067 42.987 155.513 42.7913 154.764 42.6013C154.082 42.4225 153.524 42.2436 153.088 42.0648C152.663 41.8747 152.294 41.6009 151.981 41.2432C151.679 40.8743 151.528 40.3936 151.528 39.8012C151.528 39.3317 151.668 38.9014 151.947 38.5101C152.227 38.1189 152.624 37.8115 153.138 37.5879C153.652 37.3532 154.239 37.2358 154.898 37.2358C155.916 37.2358 156.737 37.4929 157.363 38.0071C157.989 38.5213 158.325 39.2255 158.369 40.1198H156.843C156.81 39.6391 156.614 39.2535 156.257 38.9628C155.91 38.6722 155.441 38.5269 154.848 38.5269C154.3 38.5269 153.864 38.6443 153.54 38.879C153.216 39.1138 153.054 39.4212 153.054 39.8012C153.054 40.103 153.149 40.3545 153.339 40.5557C153.54 40.7458 153.786 40.9022 154.077 41.0252C154.379 41.137 154.792 41.2655 155.318 41.4109C155.977 41.5897 156.514 41.7686 156.927 41.9474C157.341 42.1151 157.693 42.3722 157.984 42.7187C158.285 43.0652 158.442 43.5179 158.453 44.0768C158.453 44.5798 158.313 45.0326 158.034 45.435C157.754 45.8374 157.358 46.156 156.843 46.3907C156.34 46.6143 155.759 46.726 155.1 46.726ZM162.468 38.6443V44.0601C162.468 44.5072 162.563 44.8258 162.753 45.0158C162.943 45.1946 163.273 45.2841 163.742 45.2841H164.866V46.5751H163.491C162.641 46.5751 162.004 46.3795 161.579 45.9883C161.155 45.5971 160.942 44.9543 160.942 44.0601V38.6443H159.752V37.3867H160.942V35.0729H162.468V37.3867H164.866V38.6443H162.468ZM166.144 41.9474C166.144 41.0084 166.334 40.1869 166.715 39.4826C167.095 38.7672 167.614 38.2139 168.274 37.8227C168.945 37.4314 169.688 37.2358 170.504 37.2358C171.309 37.2358 172.007 37.4091 172.6 37.7556C173.192 38.1021 173.634 38.5381 173.924 39.0635V37.3867H175.467V46.5751H173.924V44.8649C173.623 45.4014 173.17 45.8486 172.566 46.2063C171.974 46.5528 171.281 46.726 170.487 46.726C169.671 46.726 168.933 46.5248 168.274 46.1224C167.614 45.72 167.095 45.1555 166.715 44.4289C166.334 43.7024 166.144 42.8752 166.144 41.9474ZM173.924 41.9642C173.924 41.2711 173.785 40.6675 173.505 40.1533C173.226 39.6391 172.846 39.2479 172.365 38.9796C171.896 38.7002 171.376 38.5604 170.806 38.5604C170.236 38.5604 169.716 38.6946 169.246 38.9628C168.777 39.2311 168.402 39.6224 168.123 40.1365C167.844 40.6507 167.704 41.2544 167.704 41.9474C167.704 42.6516 167.844 43.2664 168.123 43.7918C168.402 44.306 168.777 44.7028 169.246 44.9823C169.716 45.2505 170.236 45.3847 170.806 45.3847C171.376 45.3847 171.896 45.2505 172.365 44.9823C172.846 44.7028 173.226 44.306 173.505 43.7918C173.785 43.2664 173.924 42.6572 173.924 41.9642ZM182.522 37.2191C183.64 37.2191 184.546 37.56 185.239 38.2419C185.932 38.9125 186.278 39.885 186.278 41.1593V46.5751H184.769V41.3773C184.769 40.4607 184.54 39.7621 184.082 39.2814C183.623 38.7896 182.997 38.5437 182.204 38.5437C181.399 38.5437 180.756 38.7952 180.276 39.2982C179.806 39.8012 179.571 40.5334 179.571 41.4947V46.5751H178.045V37.3867H179.571V38.6946C179.873 38.2251 180.281 37.8618 180.795 37.6047C181.321 37.3476 181.896 37.2191 182.522 37.2191Z" fill="#0C0C0C"/>
<g filter="url(#filter2_d_2820_139)">
<path fill-rule="evenodd" clip-rule="evenodd" d="M139.827 103.577C151.52 115.019 148.68 131.515 139.827 145.179L121.554 173.393C121.235 173.885 120.794 174.291 120.272 174.572C119.75 174.853 119.164 175 118.568 175C117.973 175 117.387 174.853 116.865 174.572C116.343 174.291 115.902 173.885 115.583 173.393L97.3097 145.182C88.4565 131.515 85.6165 115.019 97.3097 103.58C102.959 98.0846 110.602 95 118.568 95C126.535 95 134.177 98.0846 139.827 103.58V103.577ZM118.568 110.694C116.284 110.694 114.051 111.357 112.152 112.599C110.252 113.84 108.772 115.605 107.898 117.67C107.024 119.735 106.795 122.008 107.241 124.2C107.686 126.392 108.786 128.405 110.402 129.986C112.017 131.566 114.075 132.643 116.315 133.079C118.556 133.515 120.878 133.291 122.988 132.436C125.099 131.58 126.902 130.132 128.172 128.273C129.441 126.415 130.118 124.23 130.118 121.995C130.118 118.998 128.901 116.123 126.735 114.004C124.569 111.885 121.632 110.694 118.568 110.694Z" fill="#7EDAA3"/>
</g>
<defs>
<filter id="filter0_d_2820_139" x="0.0340652" y="0.909567" width="236.416" height="119.885" filterUnits="userSpaceOnUse" color-interpolation-filters="sRGB">
<feFlood flood-opacity="0" result="BackgroundImageFix"/>
<feColorMatrix in="SourceAlpha" type="matrix" values="0 0 0 0 0 0 0 0 0 0 0 0 0 0 0 0 0 0 127 0" result="hardAlpha"/>
<feOffset dy="18.4439"/>
<feGaussianBlur stdDeviation="16.7671"/>
<feComposite in2="hardAlpha" operator="out"/>
<feColorMatrix type="matrix" values="0 0 0 0 0 0 0 0 0 0 0 0 0 0 0 0 0 0 0.11 0"/>
<feBlend mode="normal" in2="BackgroundImageFix" result="effect1_dropShadow_2820_139"/>
<feBlend mode="normal" in="SourceGraphic" in2="effect1_dropShadow_2820_139" result="shape"/>
</filter>
<filter id="filter1_d_2820_139" x="76.3212" y="53.7259" width="84.6741" height="82.159" filterUnits="userSpaceOnUse" color-interpolation-filters="sRGB">
<feFlood flood-opacity="0" result="BackgroundImageFix"/>
<feColorMatrix in="SourceAlpha" type="matrix" values="0 0 0 0 0 0 0 0 0 0 0 0 0 0 0 0 0 0 127 0" result="hardAlpha"/>
<feOffset dy="18.4439"/>
<feGaussianBlur stdDeviation="16.7671"/>
<feComposite in2="hardAlpha" operator="out"/>
<feColorMatrix type="matrix" values="0 0 0 0 0 0 0 0 0 0 0 0 0 0 0 0 0 0 0.25 0"/>
<feBlend mode="normal" in2="BackgroundImageFix" result="effect1_dropShadow_2820_139"/>
<feBlend mode="normal" in="SourceGraphic" in2="effect1_dropShadow_2820_139" result="shape"/>
</filter>
<filter id="filter2_d_2820_139" x="56.0384" y="79.91" width="125.06" height="147.06" filterUnits="userSpaceOnUse" color-interpolation-filters="sRGB">
<feFlood flood-opacity="0" result="BackgroundImageFix"/>
<feColorMatrix in="SourceAlpha" type="matrix" values="0 0 0 0 0 0 0 0 0 0 0 0 0 0 0 0 0 0 127 0" result="hardAlpha"/>
<feOffset dy="18.44"/>
<feGaussianBlur stdDeviation="16.765"/>
<feComposite in2="hardAlpha" operator="out"/>
<feColorMatrix type="matrix" values="0 0 0 0 0 0 0 0 0 0 0 0 0 0 0 0 0 0 0.25 0"/>
<feBlend mode="normal" in2="BackgroundImageFix" result="effect1_dropShadow_2820_139"/>
<feBlend mode="normal" in="SourceGraphic" in2="effect1_dropShadow_2820_139" result="shape"/>
</filter>
</defs>
</svg>
