<svg width="21" height="21" viewBox="0 0 21 21" fill="none" xmlns="http://www.w3.org/2000/svg">
<path d="M5.14827 0.632324H15.1471C17.8968 0.632324 20.1465 2.88238 20.1465 5.63244V15.6327C20.1465 18.3827 17.8968 20.6328 15.1471 20.6328H5.14827C2.3986 20.6328 0.14887 18.3827 0.14887 15.6327V5.63244C0.14887 2.88238 2.3986 0.632324 5.14827 0.632324ZM13.6473 16.1327H15.647V8.6325H13.6473V16.1327ZM14.6471 7.13247C15.1971 7.13247 15.647 6.68246 15.647 6.13245C15.647 5.58244 15.1971 5.13243 14.6471 5.13243C14.0972 5.13243 13.6473 5.58244 13.6473 6.13245C13.6473 6.68246 14.0972 7.13247 14.6471 7.13247ZM4.64833 16.1327H6.6481V12.3826C6.6481 11.1326 7.14804 10.5825 8.14792 10.5825L10.1477 10.6325V16.1327H12.1474V8.6325L8.14792 8.5325C6.44812 8.5325 4.64833 9.53253 4.64833 12.3326V16.1327Z" fill="black"/>
</svg>
