<svg width="24" height="24" viewBox="0 0 24 24" fill="none" xmlns="http://www.w3.org/2000/svg">
<path d="M23.8484 17.5832L17.7853 11.52H17.7347C17.7853 11.52 17.8358 11.4695 17.8863 11.4189L20.0589 9.24632L21.6758 7.62947C21.9789 7.32632 22.1305 6.97263 22.1305 6.56842C22.1305 6.16421 21.9789 5.76 21.6758 5.50737L18.5432 2.32421C17.9874 1.76842 16.9768 1.76842 16.4211 2.32421L14.7537 3.94105L12.5811 6.11368C12.5305 6.16421 12.5305 6.21474 12.48 6.21474L6.41684 0.151579C6.21474 -0.0505263 5.91158 -0.0505263 5.70947 0.151579L0.151579 5.70947C-0.0505263 5.91158 -0.0505263 6.21474 0.151579 6.41684L1.71789 7.98316C1.71789 7.98316 1.71789 8.03368 1.76842 8.03368L5.30526 11.5705L6.16421 12.4295L3.23368 15.36L3.18316 15.4105L3.13263 15.4611C3.13263 15.4611 3.13263 15.5116 3.08211 15.5116V15.5621L2.37474 19.0989L1.81895 21.5747C1.76842 21.7263 1.81895 21.9284 1.97053 22.0295C2.07158 22.1305 2.17263 22.1811 2.32421 22.1811C2.37474 22.1811 2.37474 22.1811 2.42526 22.1811L4.90105 21.6253L8.28631 20.8674C8.38737 20.8674 8.48842 20.8168 8.58947 20.7158L11.52 17.7853L12.48 18.7453C12.48 18.7453 12.48 18.7453 12.5305 18.7958L16.0674 22.3326L17.5832 23.8484C17.6842 23.9495 17.7853 24 17.9368 24C18.0884 24 18.1895 23.9495 18.2905 23.8484L23.8484 18.2905C23.9495 18.1895 24 18.0884 24 17.9368C24 17.8358 23.8989 17.6842 23.8484 17.5832ZM17.0779 3.03158C17.28 2.82947 17.5832 2.82947 17.7853 3.03158L20.9179 6.16421C21.0189 6.26526 21.0695 6.36632 21.0695 6.51789C21.0695 6.66947 21.0189 6.77053 20.9179 6.87158L19.6547 8.13474L15.7642 4.24421L17.0779 3.03158ZM15.1074 5.00211L18.9979 8.89263L17.5326 10.3579L13.6421 6.46737L15.1074 5.00211ZM2.77895 7.68L4.85053 5.60842C5.05263 5.40632 5.05263 5.10316 4.85053 4.90105C4.64842 4.69895 4.34526 4.69895 4.14316 4.90105L2.07158 6.97263L1.16211 6.06316L6.01263 1.21263L11.7726 6.97263L6.9221 11.8232L6.41684 11.3179L8.48842 9.24632C8.69052 9.04421 8.69052 8.74105 8.48842 8.53895C8.28631 8.33684 7.98316 8.33684 7.78105 8.53895L5.70947 10.6105L2.77895 7.68ZM2.98105 21.019L3.13263 20.2105L3.73895 20.8168L2.98105 21.019ZM4.95158 20.5642L3.43579 19.0484L3.94105 16.8253L7.22526 20.1095L4.95158 20.5642ZM11.1158 16.7242L8.18526 19.6547L4.29474 15.7642L12.9347 7.12421L16.8253 11.0147C16.7747 11.0147 16.7242 11.0653 16.6737 11.1158L11.1158 16.7242ZM17.8863 22.7874L17.0779 21.9789L19.1495 19.9074C19.3516 19.7053 19.3516 19.4021 19.1495 19.2C18.9474 18.9979 18.6442 18.9979 18.4421 19.2L16.3705 21.2716L13.4905 18.4421L15.5621 16.3705C15.7642 16.1684 15.7642 15.8653 15.5621 15.6632C15.36 15.4611 15.0568 15.4611 14.8547 15.6632L12.7832 17.7347L12.1768 17.0779L17.0274 12.2274L22.7368 17.9368L17.8863 22.7874Z" fill="#EB5D2F"/>
</svg>
