<svg width="32" height="32" viewBox="0 0 32 32" fill="none" xmlns="http://www.w3.org/2000/svg">
<g filter="url(#filter0_d_2841_2470)">
<path d="M26.3453 2.48254H19.7246V3.31033H26.3453C26.8017 3.31033 27.1729 3.68159 27.1729 4.13812C27.1729 4.59464 26.8017 4.96591 26.3453 4.96591H22.2074C21.2945 4.96591 20.5522 5.70843 20.5522 6.62148C20.5522 7.53453 21.2945 8.27705 22.2074 8.27705H23.035C23.4914 8.27705 23.8625 8.64832 23.8625 9.10484V9.93263H24.6901V9.10484C24.6901 8.19179 23.9478 7.44927 23.035 7.44927H22.2074C21.751 7.44927 21.3798 7.078 21.3798 6.62148C21.3798 6.16495 21.751 5.79369 22.2074 5.79369H26.3453C27.2581 5.79369 28.0005 5.05117 28.0005 4.13812C28.0005 3.22507 27.2581 2.48254 26.3453 2.48254Z" fill="#727874"/>
<path d="M18.8966 1.65527H4V5.79421H18.8966V1.65527ZM6.48276 4.55253H5.65517C5.42676 4.55253 5.24138 4.3671 5.24138 4.13863V3.31085C5.24138 3.08238 5.42676 2.89695 5.65517 2.89695H6.48276V4.55253ZM8.13793 4.55253H7.31034V2.89695H8.13793V4.55253ZM10.2069 4.13863C10.2069 4.3671 10.0215 4.55253 9.7931 4.55253H8.96552V2.89695H9.7931C10.0215 2.89695 10.2069 3.08238 10.2069 3.31085V4.13863ZM16.8276 4.55253C16.3703 4.55253 16 4.18209 16 3.72474C16 3.26739 16.3703 2.89695 16.8276 2.89695C17.2848 2.89695 17.6552 3.26739 17.6552 3.72474C17.6552 4.18209 17.2848 4.55253 16.8276 4.55253Z" fill="#727874"/>
<path d="M18.8966 9.93139V6.62024H4V10.7592H11.8728C12.251 10.2596 12.8444 9.93139 13.5172 9.93139H18.8966ZM6.06897 9.51749C5.61172 9.51749 5.24138 9.14706 5.24138 8.68971C5.24138 8.23235 5.61172 7.86192 6.06897 7.86192C6.52621 7.86192 6.89655 8.23235 6.89655 8.68971C6.89655 9.14706 6.52621 9.51749 6.06897 9.51749Z" fill="#727874"/>
<path d="M23.0351 22.3434H16.4144V23.1717H13.9316V24H25.5178V23.1717H23.0351V22.3434Z" fill="#727874"/>
<path d="M12.2754 20.2758C12.2754 20.9607 12.8324 21.5182 13.5168 21.5182H15.5857H23.8616H25.9306C26.615 21.5182 27.1719 20.9607 27.1719 20.2758V19.0333H12.2754V20.2758ZM21.3788 19.8616C21.6073 19.8616 21.7926 20.0471 21.7926 20.2758C21.7926 20.5044 21.6073 20.6899 21.3788 20.6899C21.1504 20.6899 20.965 20.5044 20.965 20.2758C20.965 20.0471 21.1504 19.8616 21.3788 19.8616ZM19.7237 19.8616C19.9521 19.8616 20.1375 20.0471 20.1375 20.2758C20.1375 20.5044 19.9521 20.6899 19.7237 20.6899C19.4953 20.6899 19.3099 20.5044 19.3099 20.2758C19.3099 20.0471 19.4953 19.8616 19.7237 19.8616ZM18.0685 19.8616C18.2969 19.8616 18.4823 20.0471 18.4823 20.2758C18.4823 20.5044 18.2969 20.6899 18.0685 20.6899C17.8401 20.6899 17.6547 20.5044 17.6547 20.2758C17.6547 20.0471 17.8401 19.8616 18.0685 19.8616Z" fill="#727874"/>
<path d="M4 15.7244H11.4483V11.9993C11.4483 11.8578 11.4628 11.7191 11.4901 11.5854H4V15.7244ZM8.96552 12.8271H9.7931C10.0215 12.8271 10.2069 13.0126 10.2069 13.241V14.0688C10.2069 14.2973 10.0215 14.4827 9.7931 14.4827H8.96552V12.8271ZM7.31034 12.8271H8.13793V14.4827H7.31034V12.8271ZM5.24138 13.241C5.24138 13.0126 5.42676 12.8271 5.65517 12.8271H6.48276V14.4827H5.65517C5.42676 14.4827 5.24138 14.2973 5.24138 14.0688V13.241Z" fill="#727874"/>
<path d="M4 19.447C4 19.675 4.18538 19.8608 4.41379 19.8608H11.4483V16.5507H4V19.447ZM8.13793 17.3782H8.96552V19.0333H8.13793V17.3782ZM6.48276 17.3782H7.31034V19.0333H6.48276V17.3782ZM4.82759 17.3782H5.65517V19.0333H4.82759V17.3782Z" fill="#727874"/>
<path d="M18.069 0H4.82759L4 0.828284H18.8966L18.069 0Z" fill="#727874"/>
<path d="M25.9306 10.7581H13.5168C12.8324 10.7581 12.2754 11.3152 12.2754 11.9997V18.2081H27.1719V11.9997C27.1719 11.3152 26.615 10.7581 25.9306 10.7581ZM18.4823 11.9997H25.9306V13.6553H18.4823V11.9997ZM18.0685 14.897H19.7237V15.7248H18.0685V14.897ZM13.5168 11.9997H16.8271V13.6553H13.5168V11.9997ZM17.2409 17.3804H13.103V16.5526H17.2409V17.3804ZM17.2409 15.7248H13.103V14.897H17.2409V15.7248ZM26.3444 17.3804H18.0685V16.5526H26.3444V17.3804ZM26.3444 15.7248H20.965V14.897H26.3444V15.7248Z" fill="#727874"/>
</g>
<defs>
<filter id="filter0_d_2841_2470" x="0" y="0" width="32" height="32" filterUnits="userSpaceOnUse" color-interpolation-filters="sRGB">
<feFlood flood-opacity="0" result="BackgroundImageFix"/>
<feColorMatrix in="SourceAlpha" type="matrix" values="0 0 0 0 0 0 0 0 0 0 0 0 0 0 0 0 0 0 127 0" result="hardAlpha"/>
<feOffset dy="4"/>
<feGaussianBlur stdDeviation="2"/>
<feComposite in2="hardAlpha" operator="out"/>
<feColorMatrix type="matrix" values="0 0 0 0 0.6975 0 0 0 0 1 0 0 0 0 0.8075 0 0 0 1 0"/>
<feBlend mode="normal" in2="BackgroundImageFix" result="effect1_dropShadow_2841_2470"/>
<feBlend mode="normal" in="SourceGraphic" in2="effect1_dropShadow_2841_2470" result="shape"/>
</filter>
</defs>
</svg>
