<svg width="25" height="20" viewBox="0 0 25 20" fill="none" xmlns="http://www.w3.org/2000/svg">
<path fill-rule="evenodd" clip-rule="evenodd" d="M7.93863 19.2359C16.995 19.2359 21.9486 11.8482 21.9486 5.44234C21.9486 5.23204 21.9486 5.02332 21.9342 4.81538C22.8978 4.13013 23.7294 3.27932 24.3906 2.30581C23.493 2.69805 22.539 2.95529 21.5634 3.0687C22.5906 2.46262 23.3598 1.51042 23.7282 0.386863C22.761 0.951596 21.7038 1.35016 20.601 1.56401C18.7362 -0.387753 15.6174 -0.482316 13.6338 1.35366C12.3558 2.53747 11.8122 4.30252 12.2094 5.98609C8.25063 5.78997 4.56183 3.9493 2.06103 0.921239C0.754225 3.13645 1.42263 5.96928 3.58623 7.39175C2.80263 7.3693 2.03583 7.16159 1.35063 6.78589V6.84741C1.35183 9.1548 3.00423 11.1416 5.30103 11.5988C4.57623 11.7937 3.81542 11.822 3.07862 11.6814C3.72302 13.6568 5.57223 15.0098 7.67823 15.0488C5.93463 16.398 3.78063 17.1306 1.56303 17.1283C1.17183 17.1271 0.780625 17.1046 0.390625 17.0586C2.64303 18.481 5.26263 19.2359 7.93863 19.2324" fill="black"/>
</svg>
